# xmcd CD database file
#
# Track frame offsets:
#	150
#	15085
#	31796
#	45939
#	60854
#	75390
#	88868
#	103126
#	120266
#	142113
#	153861
#	172431
#	189228
#	206813
#	217614
#	237594
#	250102
#	265203
#	276751
#	288300
#	301275
#	318527
#	331664
#
# Disc length: 4639 seconds
#
# Revision: 0
# Processed by: cddbd v1.5.2PL0 Copyright (c) Steve Scherf et al.
# Submitted via: CDex 1.70beta2
#
DISCID=2e121d17
DTITLE=John Hammond - Source Point/I'm Satisfied
DYEAR=1900
DGENRE=Blues
TTITLE0=I Got Love If You Want It
TTITLE1=Hoo-Doo Blues
TTITLE2=Mellow Down Easy
TTITLE3=Takin' Care of Business
TTITLE4=She Moves Me
TTITLE5=Let's Go Home
TTITLE6=Tell Me Mama
TTITLE7=No Place to Go
TTITLE8=My First Plea
TTITLE9=Junco Partner (PD)
TTITLE10=As the Years Go Passing By
TTITLE11=Ouside Your Door
TTITLE12=If You Ever Need a Man
TTITLE13=Man in the Road
TTITLE14=Mama 'Tain't Long Fo' Day
TTITLE15=Farther Up the Road
TTITLE16=I'm Satisfied
TTITLE17=If You Got the Feeling
TTITLE18=Ride Till I Die (Jockey Blues)
TTITLE19=I'm Gonna Leave
TTITLE20=Form Four Until Late
TTITLE21=Last Night
TTITLE22=Rock Me Baby
EXTD=
EXTT0=
EXTT1=
EXTT2=
EXTT3=
EXTT4=
EXTT5=
EXTT6=
EXTT7=
EXTT8=
EXTT9=
EXTT10=
EXTT11=
EXTT12=
EXTT13=
EXTT14=
EXTT15=
EXTT16=
EXTT17=
EXTT18=
EXTT19=
EXTT20=
EXTT21=
EXTT22=
PLAYORDER=
